# xmcd
#
# Track frame offsets: 
#        150
#        6173
#        28910
#        47991
#        70476
#        90664
#        102503
#        122846
#        134867
#        146570
#        169330
#        195971
#        215572
#        220134
#        238030
#        253926
#        273688
#        296345
#        308945
#
# Disc length: 4424 seconds
#
# Revision: 0
# Processed by: cddbd v1.5.2PL0 Copyright (c) Steve Scherf et al.
# Submitted via: ExactAudioCopy v1.0b1
#
DISCID=37114613
DTITLE=Peter LeMarc - Sången Dom Spelar När Filmen Ar Slut {2010 'Star
DTITLE=kare Än Ord' Box Edition}
DYEAR=1991
DGENRE=Rock
TTITLE0=Evelina Tagning Ett
TTITLE1=Sången Dom Spelar När Filmen Ar Slut
TTITLE2=Säg Som Det Ar
TTITLE3=Evelina
TTITLE4=Båten Over
TTITLE5=Ditt Oppna Fönster
TTITLE6=Nonsomdu
TTITLE7=Ar Det Därför Jag Alskar Dej Så?
TTITLE8=Ett Av Dom Sätt
TTITLE9=Gråt!
TTITLE10=Little Willie John
TTITLE11=Drivved
TTITLE12=Femtinio Sekunder
TTITLE13=Sömnlösas Måne (extranummer)
TTITLE14=Tidvatten (extranummer)
TTITLE15=Himlen Så Hög (extranummer)
TTITLE16=Mannen I Mitten (extranummer)
TTITLE17=Let Them Talk (extranummer)
TTITLE18=Sången Dom Spelar När Filmen Ar Slut (akustisk version, extra
TTITLE18=nummer)
EXTD=
EXTT0=
EXTT1=
EXTT2=
EXTT3=
EXTT4=
EXTT5=
EXTT6=
EXTT7=
EXTT8=
EXTT9=
EXTT10=
EXTT11=
EXTT12=
EXTT13=
EXTT14=
EXTT15=
EXTT16=
EXTT17=
EXTT18=
PLAYORDER=
